<?xml version="1.0" encoding="UTF-8"?>
<svg id="Layer_1" xmlns="http://www.w3.org/2000/svg" version="1.1" xmlns:xlink="http://www.w3.org/1999/xlink" viewBox="0 0 163 34">
  <!-- Generator: Adobe Illustrator 29.8.1, SVG Export Plug-In . SVG Version: 2.1.1 Build 2)  -->
  <defs>
    <style>
      .st0 {
        fill: #ff9d00;
      }

      .st1 {
        fill: #3359ff;
      }

      .st2 {
        fill: none;
      }

      .st3 {
        fill: #1db212;
      }

      .st4 {
        clip-path: url(#clippath);
      }

      .st5 {
        fill: #26245c;
      }
    </style>
    <clipPath id="clippath">
      <rect class="st2" width="34" height="34"/>
    </clipPath>
  </defs>
  <g class="st4">
    <g>
      <path class="st0" d="M34.08,0v34.16h-.12c-9.43,0-17.08-7.65-17.08-17.08S24.53,0,33.96,0h.12Z"/>
      <path class="st1" d="M21.88,0c-2.41,6.77-8.87,11.62-16.47,11.62-1.92,0-3.76-.31-5.49-.88V0h21.96Z"/>
      <path class="st3" d="M17.25,30.36c0,1.31-.14,2.58-.41,3.8H-.08V12.89c9.58.08,17.33,7.87,17.33,17.48h0Z"/>
    </g>
  </g>
  <path class="st5" d="M55.16,16.91c.94.18,1.72.65,2.33,1.42.61.77.91,1.65.91,2.64,0,.9-.22,1.69-.67,2.38-.43.67-1.06,1.2-1.9,1.58-.83.38-1.82.58-2.95.58h-7.22V8.75h6.91c1.14,0,2.11.18,2.93.55.83.37,1.46.88,1.87,1.54.43.66.65,1.4.65,2.23,0,.98-.26,1.79-.79,2.45-.51.66-1.2,1.12-2.06,1.39h0ZM49.02,15.66h3.07c.8,0,1.42-.18,1.85-.53.43-.37.65-.89.65-1.56s-.22-1.19-.65-1.56-1.05-.55-1.85-.55h-3.07v4.2ZM52.4,22.76c.82,0,1.45-.19,1.9-.58.46-.38.7-.93.7-1.63s-.24-1.28-.72-1.68c-.48-.42-1.13-.62-1.94-.62h-3.31v4.51h3.38-.01ZM62.78,10.62c-.59,0-1.09-.18-1.49-.55-.38-.38-.58-.86-.58-1.42s.19-1.02.58-1.39c.4-.38.9-.58,1.49-.58s1.08.19,1.46.58c.4.37.6.83.6,1.39s-.2,1.03-.6,1.42c-.38.37-.87.55-1.46.55ZM64.44,12.2v13.3h-3.36v-13.3h3.36ZM70.83,22.74h5.93v2.76h-9.74v-2.71l5.81-7.82h-5.78v-2.76h9.65v2.71l-5.86,7.82h-.01ZM78.54,17.1c0-1.65.37-3.12,1.1-4.42.75-1.31,1.77-2.33,3.05-3.05,1.3-.74,2.74-1.1,4.34-1.1,1.87,0,3.51.48,4.92,1.44,1.41.96,2.39,2.29,2.95,3.98h-3.86c-.38-.8-.93-1.4-1.63-1.8-.69-.4-1.49-.6-2.4-.6-.98,0-1.85.23-2.62.7-.75.45-1.34,1.09-1.78,1.92-.42.83-.62,1.81-.62,2.93s.21,2.08.62,2.93c.43.83,1.02,1.48,1.78,1.94.77.45,1.64.67,2.62.67.91,0,1.71-.2,2.4-.6.7-.42,1.25-1.02,1.63-1.82h3.86c-.56,1.71-1.54,3.05-2.95,4.01-1.39.94-3.03,1.42-4.92,1.42-1.6,0-3.05-.36-4.34-1.08-1.28-.74-2.3-1.75-3.05-3.05-.74-1.3-1.1-2.77-1.1-4.42ZM99.49,10.62c-.59,0-1.09-.18-1.49-.55-.38-.38-.58-.86-.58-1.42s.19-1.02.58-1.39c.4-.38.9-.58,1.49-.58s1.08.19,1.46.58c.4.37.6.83.6,1.39s-.2,1.03-.6,1.42c-.38.37-.87.55-1.46.55ZM101.14,12.2v13.3h-3.36v-13.3h3.36ZM110,22.4l3.36-10.2h3.58l-4.92,13.3h-4.08l-4.9-13.3h3.6l3.36,10.2ZM120.53,10.62c-.59,0-1.09-.18-1.49-.55-.38-.38-.58-.86-.58-1.42s.19-1.02.58-1.39c.4-.38.9-.58,1.49-.58s1.08.19,1.46.58c.4.37.6.83.6,1.39s-.2,1.03-.6,1.42c-.38.37-.87.55-1.46.55ZM122.19,12.2v13.3h-3.36v-13.3h3.36ZM129.42,14.96v6.43c0,.45.1.78.31.98.22.19.59.29,1.1.29h1.56v2.83h-2.11c-2.83,0-4.25-1.38-4.25-4.13v-6.41h-1.58v-2.76h1.58v-3.29h3.38v3.29h2.98v2.76h-2.98,0ZM133.95,18.8c0-1.34.26-2.54.79-3.58.54-1.04,1.27-1.84,2.18-2.4.93-.56,1.96-.84,3.1-.84.99,0,1.86.2,2.59.6.75.4,1.35.9,1.8,1.51v-1.9h3.38v13.3h-3.38v-1.94c-.43.62-1.03,1.14-1.8,1.56-.75.4-1.62.6-2.62.6-1.12,0-2.14-.29-3.07-.86-.91-.58-1.64-1.38-2.18-2.42-.53-1.06-.79-2.26-.79-3.62h0ZM144.41,18.85c0-.82-.16-1.51-.48-2.09-.32-.59-.75-1.04-1.3-1.34-.54-.32-1.13-.48-1.75-.48s-1.2.15-1.73.46-.96.75-1.3,1.34c-.32.58-.48,1.26-.48,2.06s.16,1.5.48,2.11c.34.59.77,1.05,1.3,1.37.54.32,1.12.48,1.73.48s1.21-.15,1.75-.46c.54-.32.98-.77,1.3-1.34.32-.59.48-1.3.48-2.11ZM156.17,25.72c-1.09,0-2.06-.19-2.93-.58-.86-.4-1.55-.94-2.06-1.61-.5-.67-.77-1.42-.82-2.23h3.38c.06.51.31.94.74,1.27.45.34,1,.5,1.66.5s1.14-.13,1.49-.38c.37-.26.55-.58.55-.98,0-.43-.22-.75-.67-.96-.43-.22-1.13-.46-2.09-.72-.99-.24-1.81-.49-2.45-.74-.62-.26-1.17-.65-1.63-1.18-.45-.53-.67-1.24-.67-2.14,0-.74.21-1.41.62-2.02.43-.61,1.04-1.09,1.82-1.44.8-.35,1.74-.53,2.81-.53,1.58,0,2.85.4,3.79,1.2.94.78,1.46,1.85,1.56,3.19h-3.22c-.05-.53-.27-.94-.67-1.25-.38-.32-.9-.48-1.56-.48-.61,0-1.08.11-1.42.34-.32.22-.48.54-.48.94,0,.45.22.79.67,1.03.45.22,1.14.46,2.09.7.96.24,1.75.49,2.38.74.62.26,1.16.66,1.61,1.2.46.53.7,1.23.72,2.11,0,.77-.22,1.46-.65,2.06-.42.61-1.02,1.09-1.82,1.44-.78.34-1.7.5-2.76.5v.02Z"/>
  <g>
    <path class="st5" d="M38.53,27.66c-1.44,0-2.61,1.17-2.61,2.61s1.17,2.61,2.61,2.61,2.61-1.17,2.61-2.61-1.17-2.61-2.61-2.61ZM38.53,32.58c-1.27,0-2.32-1.03-2.32-2.32s1.03-2.32,2.32-2.32,2.32,1.03,2.32,2.32-1.03,2.32-2.32,2.32Z"/>
    <polygon class="st5" points="36.92 29.87 37.41 29.87 37.41 31.19 37.68 31.19 37.68 29.87 38.17 29.87 38.17 29.63 36.92 29.63 36.92 29.87"/>
    <path class="st5" d="M39.33,30.43s-.02.07-.04.12-.02.1-.04.14-.02.11-.04.15h0s-.02-.1-.04-.15c-.01-.05-.02-.11-.04-.14-.01-.05-.02-.08-.04-.12l-.3-.81h-.42v1.56h.27v-1.27s.01.05.02.07c.01.06.04.11.05.17.01.05.04.1.05.14.01.05.02.08.04.11l.3.79h.24l.29-.79s.02-.07.04-.11.02-.1.05-.14c.01-.05.04-.11.05-.17,0-.02.01-.05.02-.08v1.3h.27v-1.56h-.42l-.3.81h-.04Z"/>
  </g>
</svg>